<?xml version="1.0" standalone="no"?>
<!DOCTYPE svg PUBLIC "-//W3C//DTD SVG 20010904//EN"
 "http://www.w3.org/TR/2001/REC-SVG-20010904/DTD/svg10.dtd">
<svg version="1.0" xmlns="http://www.w3.org/2000/svg"
 width="577.000000pt" height="577.000000pt" viewBox="0 0 577.000000 577.000000"
 preserveAspectRatio="xMidYMid meet">
<metadata>
Created by potrace 1.14, written by Peter Selinger 2001-2017
</metadata>
<g transform="translate(0.000000,577.000000) scale(0.100000,-0.100000)"
fill="#000000" stroke="none">
<path d="M5430 4952 c-35 -30 -77 -60 -110 -78 -19 -10 -45 -29 -57 -41 -12
-13 -25 -23 -28 -23 -3 0 -22 -17 -44 -39 -36 -36 -86 -57 -96 -41 -4 6 -96 6
-102 0 -2 -1 -6 -3 -10 -4 -5 -1 -23 -6 -40 -10 -18 -4 -33 -11 -33 -14 0 -4
-14 -13 -31 -21 -47 -21 -163 -141 -220 -229 -28 -42 -65 -86 -82 -96 -18 -10
-42 -25 -54 -33 -13 -7 -25 -13 -29 -13 -3 1 -14 -8 -23 -19 -10 -12 -21 -21
-25 -21 -7 0 -38 -25 -72 -57 -13 -13 -25 -23 -27 -23 -12 0 -116 -107 -105
-108 7 -1 38 -3 68 -4 65 -3 88 -17 56 -35 -11 -7 -18 -12 -15 -13 4 0 -20
-27 -52 -60 -33 -33 -59 -64 -59 -70 0 -5 -5 -10 -11 -10 -5 0 -7 -5 -3 -12 4
-6 3 -8 -3 -5 -6 4 -21 -8 -33 -26 -25 -36 -77 -77 -172 -135 -96 -59 -282
-153 -333 -168 -5 -2 -40 -14 -77 -28 -38 -13 -68 -22 -68 -21 0 2 -15 -2 -34
-10 -18 -8 -36 -11 -40 -8 -3 4 -6 2 -6 -4 0 -6 -9 -9 -20 -6 -11 3 -20 1 -20
-3 0 -5 -10 -10 -22 -10 -13 -1 -49 -5 -81 -9 -100 -13 -653 -5 -677 10 -5 3
-10 2 -10 -2 0 -10 -47 -10 -56 0 -4 3 -16 2 -27 -4 -15 -9 -18 -8 -12 2 6 8
4 10 -4 4 -7 -4 -45 -9 -84 -10 -103 -5 -183 -14 -236 -26 -25 -6 -54 -12 -64
-14 -38 -8 -57 -17 -57 -26 0 -6 -4 -8 -9 -4 -18 10 -126 -58 -181 -114 -30
-31 -44 -37 -84 -40 -27 -1 -58 -5 -70 -7 -11 -3 -32 -7 -46 -10 -55 -10 -146
-39 -170 -53 -8 -5 -46 -24 -84 -42 -38 -19 -71 -40 -73 -46 -3 -7 -9 -11 -13
-8 -12 7 -152 -132 -197 -195 -58 -83 -132 -244 -118 -258 3 -3 1 -10 -4 -16
-5 -6 -12 -24 -15 -41 -3 -16 -7 -43 -10 -60 -10 -54 -15 -89 -22 -150 -6 -60
-8 -70 -19 -155 -11 -87 -15 -112 -21 -121 -3 -5 0 -9 6 -9 6 0 8 -5 3 -12 -8
-14 -11 -27 -17 -73 -9 -64 -17 -112 -27 -157 -6 -26 -8 -52 -4 -58 3 -5 2
-10 -3 -10 -5 0 -13 -24 -17 -52 -10 -65 -9 -61 -16 -73 -4 -5 -5 -18 -4 -27
2 -10 0 -18 -5 -18 -4 0 -11 -17 -15 -37 -4 -21 -5 -38 -4 -38 2 0 -4 -11 -14
-25 -9 -13 -17 -31 -17 -38 0 -16 -82 -183 -102 -207 -45 -56 -135 -145 -146
-145 -7 0 -15 -7 -18 -15 -4 -8 -10 -15 -15 -15 -4 0 -30 -13 -57 -29 -61 -36
-215 -77 -307 -82 -34 -1 -30 -3 30 -13 39 -7 91 -12 118 -11 26 0 47 -3 47
-6 0 -14 338 3 363 18 6 4 23 8 37 8 14 1 52 12 85 24 33 12 65 23 70 24 21 6
105 51 105 57 0 3 16 12 35 20 19 7 32 17 29 22 -3 4 1 8 8 8 20 1 124 110
166 176 46 72 102 187 102 212 0 10 4 22 9 28 10 11 34 97 35 130 1 12 5 26 9
30 4 4 7 27 7 50 0 24 5 46 10 49 6 4 7 12 3 18 -9 15 -10 46 -1 73 4 12 4 25
1 28 -4 4 -6 23 -5 44 1 20 4 96 6 169 5 169 15 296 27 353 6 25 10 52 11 60
0 8 7 40 16 70 8 30 15 65 16 78 0 12 5 22 10 22 5 0 6 3 3 7 -4 3 0 15 10 25
9 10 13 18 9 18 -3 0 0 13 8 29 9 16 12 31 9 35 -4 3 -2 6 4 6 6 0 16 12 22
28 10 27 41 83 52 92 3 3 15 22 28 43 12 20 26 37 31 37 4 0 10 9 13 20 3 11
12 20 21 20 15 0 15 -2 0 -25 -8 -13 -13 -29 -9 -35 3 -5 1 -10 -5 -10 -6 0
-9 -4 -6 -9 4 -5 2 -11 -3 -13 -6 -1 -11 -14 -13 -28 -2 -14 -6 -29 -9 -35 -4
-5 -5 -20 -4 -32 1 -13 -2 -23 -6 -23 -4 0 -6 -8 -4 -17 1 -10 -2 -24 -8 -30
-6 -9 -6 -13 3 -13 8 0 9 -4 3 -12 -11 -15 -10 -157 2 -214 5 -22 8 -43 7 -47
-1 -4 5 -21 13 -37 9 -17 13 -30 10 -30 -3 0 1 -13 10 -30 9 -16 17 -45 18
-63 2 -18 5 -37 8 -42 7 -12 3 -340 -4 -375 -3 -14 -8 -43 -12 -65 -14 -80
-57 -207 -94 -279 -75 -142 -86 -185 -86 -341 0 -77 3 -156 7 -175 18 -98 28
-142 33 -151 7 -10 8 -10 -213 -10 -83 -1 -152 -4 -152 -8 0 -4 126 -8 280 -9
155 -1 284 -3 288 -5 7 -4 2836 -1 3155 4 103 1 187 6 187 11 0 5 -8 8 -17 7
-10 -1 -43 -1 -74 0 l-57 1 -37 88 c-21 48 -40 89 -44 92 -3 3 -7 12 -9 20 -2
8 -9 29 -17 45 -7 17 -25 58 -39 92 -14 35 -37 86 -50 115 -28 62 -41 100 -38
111 1 4 -3 7 -8 7 -6 0 -10 5 -10 10 0 6 -9 32 -21 58 -26 57 -30 67 -68 161
-17 40 -31 79 -31 87 0 8 -4 14 -8 14 -4 0 -14 21 -21 48 -8 26 -18 54 -22 62
-52 109 -71 229 -52 325 3 17 5 38 5 48 0 9 3 17 8 17 4 0 13 23 20 50 7 28
16 53 21 56 5 3 7 10 4 15 -4 5 -2 9 3 9 4 0 14 16 22 35 8 19 18 35 24 35 5
0 6 3 3 6 -4 4 1 19 11 33 37 57 43 67 55 94 6 15 15 27 18 27 4 0 17 16 29
35 12 20 27 41 34 48 19 21 51 72 48 80 -1 4 2 6 6 5 8 -3 172 205 172 217 0
3 9 16 20 27 30 32 148 278 133 278 -3 0 0 6 6 14 7 8 13 29 15 47 2 19 6 41
10 49 9 24 24 132 22 162 -1 16 1 28 4 28 3 0 6 17 7 38 2 104 14 181 37 256
8 27 13 53 10 58 -3 4 -1 8 3 8 5 0 14 20 21 44 6 24 17 50 24 58 7 7 14 20
16 28 2 8 10 22 18 31 8 8 14 21 14 27 0 7 5 12 10 12 6 0 10 6 10 13 0 8 9
22 20 32 11 10 20 24 20 32 0 8 5 11 10 8 6 -3 10 -2 10 4 0 6 23 34 51 63 55
57 78 100 83 154 4 53 -12 58 -83 24 -34 -17 -66 -30 -71 -30 -6 0 -10 -5 -10
-11 0 -5 -4 -8 -9 -4 -5 3 -12 1 -16 -5 -4 -6 -10 -8 -15 -5 -5 3 36 62 90
131 55 70 100 130 100 135 0 8 -22 91 -39 147 -5 18 -10 34 -11 37 -6 34 -40
43 -70 17z m-2595 -2597 c17 -11 32 -22 35 -25 4 -5 29 -18 50 -25 3 -1 37
-17 75 -35 39 -18 75 -33 80 -35 17 -4 49 -16 68 -26 10 -5 22 -7 27 -4 5 3
11 1 14 -4 3 -5 20 -11 38 -15 18 -3 49 -9 68 -13 48 -10 295 -10 350 0 24 5
52 13 62 18 22 12 21 13 43 -81 2 -10 19 -95 21 -105 1 -5 3 -13 4 -17 6 -18
7 -25 15 -65 4 -24 10 -41 14 -39 3 2 7 -15 8 -37 1 -23 6 -43 12 -45 6 -2 8
-8 5 -13 -3 -5 1 -33 10 -62 20 -68 50 -171 51 -177 4 -29 70 -200 77 -200 5
0 6 -4 3 -10 -3 -5 0 -22 9 -37 25 -48 50 -108 48 -115 -1 -6 28 -73 57 -128
4 -8 14 -36 22 -62 7 -27 17 -48 21 -48 4 0 7 -10 6 -22 l-2 -23 -915 0 c-888
0 -917 1 -933 19 -10 10 -18 27 -18 36 0 9 -3 20 -7 24 -5 4 -8 11 -9 14 0 4
-6 20 -12 35 -7 16 -12 32 -12 37 0 6 -11 49 -25 96 -49 168 -52 206 -26 267
11 26 17 47 13 47 -4 0 -2 4 3 8 6 4 16 18 23 32 6 14 21 41 32 60 41 70 44
75 42 83 -1 4 3 7 9 7 5 0 8 4 5 9 -4 5 -2 11 3 13 9 3 36 46 112 176 24 39
47 72 51 72 4 0 8 5 8 11 0 6 24 51 54 99 30 48 52 91 48 96 -4 4 -1 4 6 0 6
-4 12 -3 12 2 0 5 11 26 25 46 13 20 21 36 17 36 -4 0 -2 4 4 8 5 4 32 44 60
88 l49 81 30 -16 c16 -9 44 -25 60 -36z m-819 -424 c-4 -5 -2 -11 4 -13 5 -1
11 -28 13 -59 2 -31 6 -60 9 -65 9 -18 -7 -124 -31 -201 -10 -34 -16 -64 -13
-67 3 -3 1 -6 -5 -6 -5 0 -19 -19 -31 -42 -12 -24 -30 -54 -40 -67 -15 -18
-17 -31 -11 -60 9 -42 34 -112 54 -151 8 -15 11 -30 8 -34 -4 -3 -1 -6 5 -6 7
0 12 -9 12 -20 0 -11 4 -20 10 -20 5 0 9 -3 8 -7 -1 -5 12 -37 29 -73 18 -36
33 -72 35 -80 2 -8 7 -18 12 -21 5 -4 6 -13 3 -21 -4 -12 -38 -14 -181 -14
-111 1 -176 -3 -176 -9 0 -5 -9 3 -20 20 -13 19 -16 32 -9 36 8 5 8 9 0 13
-18 12 -6 238 18 333 32 130 87 273 104 273 4 0 7 6 7 14 0 8 7 22 16 30 22
23 118 212 138 274 10 28 22 52 27 52 6 0 8 -4 5 -9z m2234 -81 c19 -23 41
-48 48 -55 6 -8 12 -18 12 -24 0 -6 4 -11 9 -11 5 0 12 -8 15 -17 13 -35 37
-73 47 -73 5 0 9 -4 9 -9 0 -12 63 -115 73 -119 4 -2 7 -8 7 -13 0 -5 18 -39
40 -75 22 -36 40 -68 40 -69 0 -2 22 -41 50 -87 27 -46 50 -89 50 -95 0 -7 3
-13 8 -13 4 0 12 -10 18 -23 6 -12 37 -70 68 -129 31 -60 53 -108 49 -108 -5
0 -1 -4 7 -10 24 -15 4 -23 -57 -21 -32 1 -141 3 -243 4 -102 1 -190 6 -197
10 -7 4 -18 35 -25 67 -6 33 -16 60 -21 60 -4 0 -5 5 -2 10 4 6 1 36 -6 68
-15 68 -14 65 -29 155 -7 40 -14 81 -17 92 -2 11 -6 36 -8 55 -3 19 -7 51 -10
70 -24 168 -25 338 0 395 13 29 19 36 24 24 3 -9 22 -35 41 -59z"/>
<path d="M5140 890 c0 -5 5 -10 10 -10 6 0 10 5 10 10 0 6 -4 10 -10 10 -5 0
-10 -4 -10 -10z"/>
<path d="M5170 891 c0 -9 38 -12 44 -3 2 4 -7 8 -20 8 -13 1 -24 -1 -24 -5z"/>
</g>
</svg>
